<?xml version="1.0" encoding="UTF-8" standalone="no"?>
<!-- Created with Inkscape (http://www.inkscape.org/) -->

<svg
   xmlns:dc="http://purl.org/dc/elements/1.1/"
   xmlns:cc="http://creativecommons.org/ns#"
   xmlns:rdf="http://www.w3.org/1999/02/22-rdf-syntax-ns#"
   xmlns:svg="http://www.w3.org/2000/svg"
   xmlns="http://www.w3.org/2000/svg"
   xmlns:sodipodi="http://sodipodi.sourceforge.net/DTD/sodipodi-0.dtd"
   xmlns:inkscape="http://www.inkscape.org/namespaces/inkscape"
   width="210mm"
   height="297mm"
   viewBox="0 0 744.09448819 1052.3622047"
   id="svg2"
   version="1.1"
   inkscape:version="0.91 r13725"
   sodipodi:docname="gps.svg"
   inkscape:export-filename="/home/hideki/Projetos/Adoptcat/arts/gps-blue.png"
   inkscape:export-xdpi="7.765389"
   inkscape:export-ydpi="7.765389">
  <defs
     id="defs4" />
  <sodipodi:namedview
     id="base"
     pagecolor="#ffffff"
     bordercolor="#666666"
     borderopacity="1.0"
     inkscape:pageopacity="0.0"
     inkscape:pageshadow="2"
     inkscape:zoom="0.49497475"
     inkscape:cx="-32.046648"
     inkscape:cy="435.5338"
     inkscape:document-units="px"
     inkscape:current-layer="layer1"
     showgrid="false"
     inkscape:window-width="1366"
     inkscape:window-height="714"
     inkscape:window-x="0"
     inkscape:window-y="0"
     inkscape:window-maximized="1" />
  <metadata
     id="metadata7">
    <rdf:RDF>
      <cc:Work
         rdf:about="">
        <dc:format>image/svg+xml</dc:format>
        <dc:type
           rdf:resource="http://purl.org/dc/dcmitype/StillImage" />
        <dc:title></dc:title>
      </cc:Work>
    </rdf:RDF>
  </metadata>
  <g
     inkscape:label="Layer 1"
     inkscape:groupmode="layer"
     id="layer1">
    <path
       style="fill:#ffea00;fill-opacity:1;stroke:none;stroke-width:1.12401152;stroke-opacity:1"
       d="M 295.91701,931.04444 C 286.64324,928.86426 278.25193,924.7185 271.4816,918.97202 267.00805,915.17494 229.85636,867.01805 147.3288,758.042 82.555904,672.51066 25.818485,597.86186 21.245639,592.15578 -8.146017,555.48026 -27.68168,512.25322 -36.020319,465.44194 -38.838594,449.6208 -39.859951,413.80972 -37.986424,396.50598 -32.53651,346.1709 -13.044634,298.377 18.700537,257.51009 34.100151,237.6855 47.727511,223.6364 67.715133,206.97856 147.35855,140.60308 257.81822,111.36423 368.00658,127.49094 c 141.63901,20.72971 254.98902,116.32439 282.32969,238.10509 4.6756,20.82608 6.12015,34.41771 6.12015,57.58146 0,23.16373 -1.44455,36.75537 -6.12015,57.58145 -8.40461,37.4359 -25.75709,74.29216 -49.75251,105.67318 -6.31455,8.25806 -12.38323,16.47765 -13.48606,18.26576 -6.55372,10.62615 -232.68775,307.59447 -238.06033,312.63046 -3.56876,3.34516 -9.25821,7.38384 -12.64325,8.97483 -12.2753,5.76952 -28.17909,7.6324 -40.47711,4.74127 z m 28.4538,-352.90408 c 25.19739,-1.92626 46.89542,-7.05833 68.17545,-16.12504 54.90899,-23.3948 92.40617,-65.58384 104.39623,-117.45879 3.7664,-16.29534 4.02115,-43.83508 0.55354,-59.85053 -7.46191,-34.46473 -24.5624,-62.42699 -53.39895,-87.31668 -27.94706,-24.12189 -57.88505,-38.34894 -95.85684,-45.55274 -14.79206,-2.80628 -48.43887,-3.93466 -63.98036,-2.14567 -54.66204,6.29225 -104.23605,32.75079 -134.21794,71.63452 -19.72639,25.58329 -29.66057,50.27559 -32.13806,79.88205 -4.11685,49.19696 15.16236,93.84858 55.59765,128.76691 32.65274,28.19759 71.9858,44.29783 117.45828,48.07927 15.26905,1.26975 17.84805,1.27644 33.411,0.0867 z"
       id="path4299"
       inkscape:connector-curvature="0"
       inkscape:export-xdpi="7.765389"
       inkscape:export-ydpi="7.765389" />
    <circle
       style="opacity:1;fill:#ffffff;fill-opacity:1;stroke:none;stroke-width:2;stroke-linecap:round;stroke-linejoin:miter;stroke-miterlimit:4;stroke-dasharray:none;stroke-opacity:1"
       id="path4302"
       cx="305.08636"
       cy="452.31131"
       r="266.68027" />
    <path
       id="path4212"
       style="fill:#ffea00;fill-opacity:1;stroke:none;stroke-opacity:1"
       d="m 239.06359,411.0476 c -11.04531,-3.85913 -16.27158,-8.2486 -25.16817,-21.13838 -26.71332,-38.7035 -24.92394,-109.98124 3.65525,-145.60244 27.62583,-34.43295 67.34719,-16.25337 82.42673,37.72486 4.66242,16.68959 4.66242,59.22265 0,75.91223 -7.65001,27.38373 -24.36186,49.48092 -40.81068,53.96179 -8.86005,2.41361 -11.00071,2.32222 -20.10313,-0.85806 z m 113.02484,2.54793 c -13.97849,-6.78629 -24.68571,-22.44179 -32.90208,-48.10765 -3.88454,-12.13429 -4.43659,-17.47621 -4.31808,-41.784 0.12218,-25.06062 0.65023,-29.39932 5.23676,-43.02793 16.09201,-47.81648 49.73478,-62.90181 77.39497,-34.70373 16.33624,16.65391 25.05609,44.07451 25.01438,78.66069 -0.0434,35.99345 -8.71443,62.65164 -25.99782,79.92757 -13.53631,13.53045 -28.78212,16.6309 -44.42813,9.03505 z m -202.17392,85.93523 c -27.41456,-12.28169 -47.25752,-61.98958 -40.86834,-102.3778 7.03053,-44.44254 36.89757,-58.06235 64.02604,-29.19684 35.21523,37.47012 34.70919,117.57581 -0.83697,132.49282 -8.06637,3.38508 -13.1852,3.17451 -22.32073,-0.91818 z m 296.08752,3.51713 c -14.43883,-4.32276 -26.27137,-21.85853 -30.12191,-44.64046 -5.48608,-32.45861 6.66114,-75.68442 27.14382,-96.5913 23.98446,-24.48117 50.65035,-17.38338 62.50746,16.63794 5.39512,15.48009 5.7364,46.65654 0.71091,64.93664 -10.81339,39.33307 -38.0458,66.30193 -60.24028,59.65718 z m -58.75169,160.40129 c -3.05168,-0.52379 -8.33666,-4.43742 -12.95339,-9.59245 -14.43752,-16.12037 -20.83814,-17.09308 -31.83654,-4.83821 -9.27345,10.33271 -19.25541,13.78239 -39.88197,13.78239 -19.60368,0 -25.44847,-2.03253 -37.20491,-12.93771 -14.82547,-13.75192 -22.37047,-12.5921 -34.94454,5.37223 -5.83538,8.33695 -32.0184,10.17904 -45.34109,3.18992 -12.81476,-6.72248 -29.66164,-24.27971 -36.62837,-38.17277 -5.40944,-10.7875 -6.10909,-13.94532 -6.0046,-27.10196 0.14949,-18.82635 5.34911,-32.52204 17.29407,-45.55248 10.16794,-11.09196 16.52903,-14.57176 38.83069,-21.24213 13.17158,-3.93959 18.38465,-6.62067 26.09748,-13.42196 12.2716,-10.82127 17.5181,-19.7074 25.69395,-43.5186 7.43216,-21.64517 11.8312,-27.27513 26.22121,-33.55822 7.97378,-3.48155 13.13772,-4.25802 28.70095,-4.31548 17.66564,-0.0652 19.84551,0.34869 31.52831,5.98663 17.07638,8.2408 25.04594,17.31704 30.09592,34.27511 14.67178,49.26868 21.19252,57.07975 53.3525,63.90979 17.58973,3.73566 24.16482,7.40458 31.80296,17.74617 7.87805,10.66639 12.08211,25.5996 12.21257,43.38006 0.093,12.67821 -0.67763,16.43587 -5.23979,25.54796 -6.17115,12.32581 -21.4794,29.50642 -32.2112,36.15085 -5.68396,3.51919 -10.53404,4.72245 -20.91468,5.18866 -7.43305,0.33389 -15.83435,0.20883 -18.66953,-0.2778 z"
       inkscape:connector-curvature="0" />
  </g>
</svg>
