<?xml version="1.0" encoding="UTF-8" standalone="no"?>
<!-- Created with Inkscape (http://www.inkscape.org/) -->

<svg
   xmlns:dc="http://purl.org/dc/elements/1.1/"
   xmlns:cc="http://creativecommons.org/ns#"
   xmlns:rdf="http://www.w3.org/1999/02/22-rdf-syntax-ns#"
   xmlns:svg="http://www.w3.org/2000/svg"
   xmlns="http://www.w3.org/2000/svg"
   xmlns:sodipodi="http://sodipodi.sourceforge.net/DTD/sodipodi-0.dtd"
   xmlns:inkscape="http://www.inkscape.org/namespaces/inkscape"
   width="210mm"
   height="297mm"
   viewBox="0 0 744.09448819 1052.3622047"
   id="svg2"
   version="1.1"
   inkscape:version="0.91 r13725"
   sodipodi:docname="logo.svg">
  <defs
     id="defs4" />
  <sodipodi:namedview
     id="base"
     pagecolor="#ffffff"
     bordercolor="#666666"
     borderopacity="1.0"
     inkscape:pageopacity="0.0"
     inkscape:pageshadow="2"
     inkscape:zoom="0.49497475"
     inkscape:cx="236.54669"
     inkscape:cy="461.23422"
     inkscape:document-units="px"
     inkscape:current-layer="layer1"
     showgrid="false"
     inkscape:window-width="1366"
     inkscape:window-height="714"
     inkscape:window-x="0"
     inkscape:window-y="0"
     inkscape:window-maximized="1" />
  <metadata
     id="metadata7">
    <rdf:RDF>
      <cc:Work
         rdf:about="">
        <dc:format>image/svg+xml</dc:format>
        <dc:type
           rdf:resource="http://purl.org/dc/dcmitype/StillImage" />
        <dc:title></dc:title>
      </cc:Work>
    </rdf:RDF>
  </metadata>
  <g
     inkscape:label="Layer 1"
     inkscape:groupmode="layer"
     id="layer1">
    <path
       style="fill:#fcd837;fill-opacity:1;stroke:#000000;stroke-opacity:1"
       d="m 455.29768,591.52757 c -3.6197,-0.58031 -9.88838,-4.91624 -15.36444,-10.62751 -17.12481,-17.85981 -24.71678,-18.93748 -37.76234,-5.36027 -10.99955,11.44764 -22.83946,15.26955 -47.30529,15.26955 -23.25255,0 -30.18525,-2.25185 -44.12994,-14.33373 -17.58498,-15.23579 -26.53434,-13.95083 -41.44884,5.95191 -6.92154,9.23654 -37.97805,11.27739 -53.78052,3.53413 -15.20001,-7.44785 -35.18263,-26.89958 -43.4461,-42.29174 -6.4163,-11.9515 -7.24618,-15.45006 -7.12224,-30.02635 0.17731,-20.85777 6.34475,-36.03129 20.51305,-50.46774 12.06051,-12.28882 19.60562,-16.14411 46.05834,-23.53424 15.62323,-4.36467 21.80661,-7.33505 30.95505,-14.87023 14.55574,-11.98891 20.77878,-21.83389 30.47642,-48.21439 8.81552,-23.98077 14.03337,-30.21821 31.10183,-37.17926 9.45795,-3.85723 15.58306,-4.71747 34.04311,-4.78114 20.95379,-0.0723 23.5394,0.38632 37.39674,6.6326 20.25484,9.13002 29.70779,19.18561 35.69774,37.97351 17.40267,54.58494 25.13713,63.23885 63.28311,70.80587 20.86375,4.13875 28.66267,8.20355 37.72253,19.66105 9.3444,11.81732 14.33097,28.36187 14.48571,48.0609 0.11029,14.04623 -0.80376,18.20935 -6.21508,28.30467 -7.31981,13.6558 -25.47741,32.69026 -38.20674,40.05165 -6.74192,3.89891 -12.49477,5.23202 -24.80757,5.74852 -8.81659,0.36992 -18.78164,0.23138 -22.14453,-0.30776 z"
       id="path4240" />
    <path
       style="fill:#fcd837;fill-opacity:1;stroke:#000000;stroke-opacity:1"
       d="m 524.98493,413.81845 c -17.12634,-4.78921 -31.1613,-24.21714 -35.72856,-49.45731 -6.5072,-35.961 7.90099,-83.85103 32.19616,-107.01383 28.44873,-27.12276 60.07801,-19.2591 74.14211,18.43323 6.39932,17.15046 6.80414,51.69094 0.84324,71.94352 -12.82611,43.57725 -45.12735,73.45613 -71.45295,66.09439 z"
       id="path4238" />
    <path
       style="fill:#fcd837;fill-opacity:1;stroke:#000000;stroke-opacity:1"
       d="m 173.78601,409.9218 c -32.5173,-13.60691 -56.05369,-68.67845 -48.47526,-113.42469 8.33914,-49.23804 43.76542,-64.32747 75.94335,-32.34728 41.76992,41.51327 41.1697,130.26263 -0.99275,146.78924 -9.56778,3.75033 -15.63938,3.51704 -26.47534,-1.01727 z"
       id="path4236" />
    <path
       style="fill:#fcd837;fill-opacity:1;stroke:#000000;stroke-opacity:1"
       d="m 413.59101,314.71389 c -16.58034,-7.51856 -29.28052,-24.86334 -39.02623,-53.29864 -4.60756,-13.44361 -5.26237,-19.36194 -5.12181,-46.29262 0.14494,-27.76475 0.77127,-32.5716 6.21149,-47.6708 19.08726,-52.97604 58.99203,-69.68913 91.80066,-38.44837 19.37695,18.45092 29.71984,48.8303 29.67037,87.14845 -0.0515,39.87725 -10.33648,69.41195 -30.83686,88.55201 -16.05585,14.99043 -34.13939,18.42543 -52.69762,10.00997 z"
       id="path4234" />
    <path
       style="fill:#fcd837;fill-opacity:1;stroke:#000000;stroke-opacity:1"
       d="m 279.52861,311.89103 c -13.1012,-4.27555 -19.30025,-9.13866 -29.85277,-23.4193 -31.68553,-42.87972 -29.5631,-121.84857 4.33559,-161.31342 32.7679,-38.148384 79.88268,-18.00716 97.769,41.7955 5.53025,18.49046 5.53025,65.61298 0,84.10341 -9.07392,30.33853 -28.89638,54.82007 -48.40686,59.78445 -10.50919,2.67405 -13.04829,2.57279 -23.84496,-0.95064 z"
       id="path4212" />
    <a
       id="a4225"
       transform="matrix(0.99947872,0.03228426,-0.03228426,0.99947872,57.906996,40.789839)">
      <path
         inkscape:connector-curvature="0"
         id="path4199"
         d="m 309.01087,361.76346 c -0.79994,-2.54724 0.26458,-4.36045 3.34993,-5.70592 3.81496,-1.66362 5.94809,-1.26239 12.07102,2.27052 3.04336,1.756 7.23854,3.64546 9.32261,4.19881 4.97521,1.32098 13.24368,1.75688 14.20507,0.74887 1.09375,-1.14679 0.16268,-3.84376 -2.19353,-6.3539 -2.21935,-2.36436 -27.85399,-20.22073 -31.26533,-21.77857 -5.29283,-2.41705 -7.55133,-8.56634 -4.37095,-11.90098 1.90584,-1.99827 5.94073,-2.3041 8.38062,-0.63522 1.15379,0.7892 6.68262,3.9521 12.28627,7.02867 5.60365,3.07655 12.86618,7.24781 16.13896,9.26944 3.27276,2.02163 6.26651,3.67225 6.65276,3.66803 1.73496,-0.0189 -8.03197,-7.12489 -29.20942,-21.25148 -10.59096,-7.06479 -12.29948,-8.90775 -11.3505,-12.24367 0.56047,-1.97014 1.15469,-2.63495 3.62383,-4.0541 3.63244,-2.08776 6.91746,-1.4326 11.33772,2.26118 1.76039,1.47106 7.78025,5.19531 13.37745,8.2761 8.37065,4.60736 10.91653,6.38643 14.34541,10.02467 6.37557,6.76485 9.0024,6.35135 4.82972,-0.76027 -2.29531,-3.91194 -9.72295,-10.4366 -22.49851,-19.76332 -7.58132,-5.5347 -8.96869,-9.54208 -4.81225,-13.9001 2.87782,-3.01741 6.91631,-2.5024 12.94613,1.65092 2.82042,1.9427 6.97156,4.63004 9.22474,5.97185 2.9828,1.77631 6.80526,5.24608 14.05835,12.76125 11.65488,12.076 18.10891,18.16321 23.53039,22.19305 3.85836,2.86795 3.94143,2.88307 5.70129,1.03785 2.14871,-2.25292 2.13222,-3.71831 -0.13178,-11.70532 -2.68029,-9.45566 -0.36951,-20.45174 5.64684,-26.87102 2.41273,-2.57434 3.49294,-3.20614 5.64829,-3.30362 2.18869,-0.099 2.94116,0.291 4.20998,2.18191 1.23138,1.83509 1.46601,4.55102 1.15599,13.38054 -0.42923,12.22446 1.18886,19.88228 5.77513,27.3317 2.28959,3.71894 2.40698,4.55037 2.176,15.41208 -0.45636,21.46061 -0.005,22.72486 14.00433,39.19681 18.89314,22.21476 21.49834,25.2282 43.2031,49.97302 12.09439,13.78842 21.98442,25.21747 21.97772,25.39787 -0.0167,0.45262 -36.35831,34.46978 -36.75928,34.40814 -0.17754,-0.0273 -7.53344,-8.90597 -16.34642,-19.73038 -8.81297,-10.82441 -21.58472,-26.4781 -28.38166,-34.78599 -6.79693,-8.30787 -14.91406,-18.83193 -18.03806,-23.38677 -9.03336,-13.17078 -11.04945,-14.99274 -22.34585,-20.19406 -12.17558,-5.60613 -16.03441,-8.14843 -25.62539,-16.88281 -6.19425,-5.64101 -8.44465,-7.2666 -11.39396,-8.23047 -2.02135,-0.6606 -7.9161,-2.57547 -13.09946,-4.25526 -8.97027,-2.90703 -19.2464,-7.20099 -20.28397,-8.4758 -0.26539,-0.32603 -0.74837,-1.43946 -1.07333,-2.47425 z"
         style="fill:#231f20;fill-opacity:1" />
    </a>
    <path
       style="fill:#f27c21;fill-opacity:1;stroke:#000000;stroke-opacity:1"
       d="m 53.549858,555.40621 c -4.366263,-0.86821 -6.120096,-2.50653 -4.496247,-4.20013 1.023289,-1.06723 4.155431,-2.13471 9.317713,-3.17561 7.125085,-1.43668 8.87847,-1.96497 18.311234,-5.51701 8.927164,-3.36166 14.980821,-5.16108 21.835609,-6.49049 8.750923,-1.69719 15.449753,-2.08438 32.220593,-1.86238 14.87224,0.19688 18.17139,-0.0356 23.36825,-1.64672 3.44166,-1.06696 6.83425,-3.78454 8.46879,-6.78377 2.00574,-3.68033 2.53334,-7.67288 3.44349,-26.05756 0.31586,-6.38035 0.318,-6.39393 1.55359,-9.89687 8.46907,-24.01003 20.00885,-46.6939 30.33596,-59.63173 6.84457,-8.57489 16.96943,-16.255 26.76168,-20.29982 6.63301,-2.73984 11.61161,-3.86938 17.91143,-4.06369 l 4.33942,-0.13385 2.53226,-1.6492 c 3.57313,-2.32709 9.81876,-7.5203 12.24748,-10.1837 3.44855,-3.78177 4.55627,-6.11033 5.63473,-11.84472 0.42623,-2.26639 0.51096,-5.12095 0.54083,-18.2217 0.0371,-16.29183 0.0263,-16.13712 1.41418,-20.08168 0.31173,-0.88594 0.24423,-1.70075 -0.45663,-5.51218 -1.25775,-6.83988 -1.77831,-11.13432 -1.83294,-15.12109 -0.0541,-3.94504 0.37528,-5.77589 1.67145,-7.12775 0.56361,-0.58782 0.82343,-0.67107 1.72135,-0.55153 2.82023,0.37546 8.62654,4.25169 15.00526,10.01734 2.74747,2.48341 3.97964,3.42467 4.48313,3.42467 0.38187,0 2.93735,-0.41319 5.67884,-0.9182 4.45169,-0.82004 5.4416,-0.91795 9.26025,-0.91594 2.65537,0.001 5.36604,0.16225 7.15285,0.42445 1.58243,0.23221 2.9644,0.33432 3.07104,0.22692 1.66649,-1.67828 6.96612,-6.43217 8.91788,-7.99954 2.75122,-2.20939 3.47541,-2.53748 4.39069,-1.98921 0.52457,0.31421 0.60511,0.72114 0.6821,3.44628 0.0867,3.06976 0.079,3.10888 -1.17599,5.97137 -2.07369,4.72981 -2.05415,4.64071 -1.18643,5.41245 0.41144,0.36593 2.60344,1.84288 4.87109,3.2821 4.59562,2.91673 5.54897,3.91354 5.2853,5.52628 -0.144,0.88081 -0.006,1.09713 1.88555,2.94852 4.27478,4.1848 4.869,6.2697 2.23406,7.83857 -0.30335,0.18062 -0.76791,0.67163 -1.03234,1.09114 -0.43743,0.69397 -0.43743,0.97139 -8e-5,3.0763 0.43058,2.07235 0.43272,2.44609 0.0205,3.58489 -0.25311,0.69923 -1.238,2.15497 -2.18866,3.23497 -0.95064,1.08 -2.33303,2.66737 -3.07197,3.52749 -0.73894,0.86011 -1.95968,1.97805 -2.71276,2.48431 -0.75307,0.50626 -1.72187,1.41411 -2.15286,2.01746 -0.92489,1.29472 -1.3864,3.91769 -1.10912,6.30351 0.16203,1.39415 0.4455,1.94968 2.24776,4.4049 1.13428,1.54525 2.28355,3.34408 2.55391,3.99739 0.78594,1.89914 1.42564,5.4381 1.65012,9.12888 0.19693,3.23784 0.24131,3.41883 0.81903,3.34059 0.90301,-0.12228 4.25356,-1.86152 13.25318,-6.87956 7.30902,-4.07539 9.58539,-5.29296 16.3496,-8.74494 2.15649,-1.10052 6.46883,-4.4658 13.6764,-10.67285 3.67373,-3.16376 4.00711,-3.3831 6.71114,-4.41525 3.21705,-1.228 10.14942,-3.44868 15.82519,-5.06936 5.45753,-1.55837 8.3407,-1.47929 11.11803,0.30493 0.62737,0.40305 1.33729,1.03727 1.57762,1.40939 0.62688,0.97073 0.54399,3.21617 -0.1739,4.71032 -0.33595,0.69923 -0.61082,1.81342 -0.61082,2.47598 0,1.43085 0.0956,1.34885 -4.58112,3.92906 -4.16862,2.29987 -5.00654,2.61489 -6.95526,2.61489 -1.72662,0 -2.39373,0.3553 -5.11052,2.72187 -2.36896,2.0636 -5.82307,4.41641 -8.69113,5.92009 -3.65226,1.91483 -5.72763,3.82449 -17.56529,16.16284 -11.21023,11.6844 -15.83576,16.1346 -22.29033,21.44541 -5.84243,4.80715 -8.6236,6.71822 -11.81085,8.11577 -1.63801,0.71824 -1.73184,0.8124 -1.93829,1.94541 -0.11932,0.65486 -0.81126,3.44562 -1.53766,6.20171 -2.41845,9.17612 -4.43105,15.17945 -6.14723,18.33645 -2.029,3.73247 -2.00927,3.63081 -2.25267,11.6047 -0.20343,6.6643 -0.31934,7.82878 -1.17849,11.83865 -3.7242,17.38193 -3.85613,18.31245 -3.8454,27.12242 0.01,8.13261 0.16949,9.25718 2.30734,16.25946 2.51581,8.24024 3.83547,11.4267 4.73233,11.4267 0.23526,0 0.92685,0.61669 1.53686,1.37041 1.42114,1.75595 2.8122,2.32117 6.57413,2.67124 3.63471,0.33822 4.7545,0.88243 5.95386,2.89352 0.74774,1.25382 0.86468,1.74651 0.86995,3.66518 0.006,2.1733 -0.0127,2.23045 -0.95768,2.92425 -1.56069,1.14593 -7.1637,2.26027 -11.3649,2.26027 -2.57974,0 -9.2769,-0.61882 -11.15562,-1.03077 -1.55783,-0.34161 -2.18029,-0.95489 -3.55116,-3.49881 -0.62539,-1.16054 -2.2676,-4.13957 -3.64935,-6.62005 -3.4939,-6.27215 -11.31141,-21.24175 -13.60793,-26.05756 -2.82139,-5.91647 -5.61138,-13.49603 -8.531,-23.17621 -0.76891,-2.54937 -1.49846,-4.83355 -1.6212,-5.07592 -0.12275,-0.24239 -0.23203,2.2381 -0.24285,5.51217 -0.0438,13.24506 -2.56255,20.75756 -9.50725,28.35646 -2.0559,2.24957 -8.00049,7.30502 -10.7265,9.12214 l -1.92892,1.28578 0.85999,0.22623 c 3.72919,0.98101 12.75411,3.66046 15.38881,4.56886 4.59573,1.58453 6.0868,3.03476 6.08577,5.91903 -6.1e-4,1.6262 -0.68441,2.78991 -2.23791,3.80839 -1.10879,0.72693 -1.35437,0.77511 -4.73383,0.9286 -2.05381,0.0933 -4.0821,0.3287 -4.78601,0.55553 -0.67189,0.2165 -1.77137,0.3965 -2.44327,0.40003 -1.90694,0.01 -7.16852,-0.66056 -11.01616,-1.40397 -4.16636,-0.80498 -4.36402,-0.74322 -3.76442,1.17609 0.40266,1.28888 0.3981,1.30902 -0.42819,1.89211 -1.16379,0.82126 -3.48685,1.33091 -6.7497,1.48084 -12.71096,0.58399 -17.89936,0.64989 -31.02988,0.39408 -22.75528,-0.44336 -25.16789,-0.6657 -31.04019,-2.86055 -6.86492,-2.56582 -11.59057,-2.97164 -21.03195,-1.80609 -7.6398,0.94316 -15.29361,0.8501 -30.08273,-0.36576 -7.58685,-0.62375 -16.83663,-0.9848 -25.95972,-1.01328 -9.55508,-0.0299 -11.82912,0.35713 -21.59206,3.67449 -12.540088,4.26101 -16.799512,5.41506 -22.997568,6.23086 -3.655608,0.48119 -11.382567,0.47761 -13.81665,-0.006 z"
       id="path4160"
       inkscape:connector-curvature="0" />
    <text
       xml:space="preserve"
       style="font-style:normal;font-weight:normal;font-size:60.73927689px;line-height:125%;font-family:sans-serif;letter-spacing:0px;word-spacing:0px;writing-mode:lr-tb;fill:#000000;fill-opacity:1;stroke:#f9a11f;stroke-width:1.51848185px;stroke-linecap:butt;stroke-linejoin:miter;stroke-opacity:1"
       x="234.36189"
       y="556.24976"
       id="text4228"
       sodipodi:linespacing="125%"><tspan
         sodipodi:role="line"
         id="tspan4230"
         x="234.36189"
         y="556.24976"
         style="font-style:normal;font-variant:normal;font-weight:normal;font-stretch:condensed;font-size:60.73927689px;line-height:125%;font-family:Impact;-inkscape-font-specification:'Impact, Condensed';text-align:start;writing-mode:lr-tb;text-anchor:start;fill:#ffffff;fill-opacity:1;stroke:#f9a11f;stroke-width:1.51848185px;stroke-opacity:1">ADOPTCAT</tspan></text>
  </g>
</svg>
