<?xml version="1.0" encoding="UTF-8" standalone="no"?>
<!-- Created with Inkscape (http://www.inkscape.org/) -->

<svg
   xmlns:dc="http://purl.org/dc/elements/1.1/"
   xmlns:cc="http://creativecommons.org/ns#"
   xmlns:rdf="http://www.w3.org/1999/02/22-rdf-syntax-ns#"
   xmlns:svg="http://www.w3.org/2000/svg"
   xmlns="http://www.w3.org/2000/svg"
   xmlns:sodipodi="http://sodipodi.sourceforge.net/DTD/sodipodi-0.dtd"
   xmlns:inkscape="http://www.inkscape.org/namespaces/inkscape"
   width="210mm"
   height="297mm"
   viewBox="0 0 744.09448819 1052.3622047"
   id="svg2"
   version="1.1"
   inkscape:version="0.91 r13725"
   sodipodi:docname="pata.svg">
  <defs
     id="defs4" />
  <sodipodi:namedview
     id="base"
     pagecolor="#ffffff"
     bordercolor="#666666"
     borderopacity="1.0"
     inkscape:pageopacity="0.0"
     inkscape:pageshadow="2"
     inkscape:zoom="0.7"
     inkscape:cx="156.49738"
     inkscape:cy="660.85633"
     inkscape:document-units="px"
     inkscape:current-layer="layer1"
     showgrid="false"
     inkscape:window-width="1366"
     inkscape:window-height="714"
     inkscape:window-x="0"
     inkscape:window-y="0"
     inkscape:window-maximized="1" />
  <metadata
     id="metadata7">
    <rdf:RDF>
      <cc:Work
         rdf:about="">
        <dc:format>image/svg+xml</dc:format>
        <dc:type
           rdf:resource="http://purl.org/dc/dcmitype/StillImage" />
        <dc:title></dc:title>
      </cc:Work>
    </rdf:RDF>
  </metadata>
  <g
     inkscape:label="Layer 1"
     inkscape:groupmode="layer"
     id="layer1">
    <path
       style="fill:#fcd837;fill-opacity:1;stroke:none;stroke-opacity:1"
       d="m 455.29768,591.52757 c -3.6197,-0.58031 -9.88838,-4.91624 -15.36444,-10.62751 -17.12481,-17.85981 -24.71678,-18.93748 -37.76234,-5.36027 -10.99955,11.44764 -22.83946,15.26955 -47.30529,15.26955 -23.25255,0 -30.18525,-2.25185 -44.12994,-14.33373 -17.58498,-15.23579 -26.53434,-13.95083 -41.44884,5.95191 -6.92154,9.23654 -37.97805,11.27739 -53.78052,3.53413 -15.20001,-7.44785 -35.18263,-26.89958 -43.4461,-42.29174 -6.4163,-11.9515 -7.24618,-15.45006 -7.12224,-30.02635 0.17731,-20.85777 6.34475,-36.03129 20.51305,-50.46774 12.06051,-12.28882 19.60562,-16.14411 46.05834,-23.53424 15.62323,-4.36467 21.80661,-7.33505 30.95505,-14.87023 14.55574,-11.98891 20.77878,-21.83389 30.47642,-48.21439 8.81552,-23.98077 14.03337,-30.21821 31.10183,-37.17926 9.45795,-3.85723 15.58306,-4.71747 34.04311,-4.78114 20.95379,-0.0723 23.5394,0.38632 37.39674,6.6326 20.25484,9.13002 29.70779,19.18561 35.69774,37.97351 17.40267,54.58494 25.13713,63.23885 63.28311,70.80587 20.86375,4.13875 28.66267,8.20355 37.72253,19.66105 9.3444,11.81732 14.33097,28.36187 14.48571,48.0609 0.11029,14.04623 -0.80376,18.20935 -6.21508,28.30467 -7.31981,13.6558 -25.47741,32.69026 -38.20674,40.05165 -6.74192,3.89891 -12.49477,5.23202 -24.80757,5.74852 -8.81659,0.36992 -18.78164,0.23138 -22.14453,-0.30776 z"
       id="path4240" />
    <path
       style="fill:#fcd837;fill-opacity:1;stroke:none;stroke-opacity:1"
       d="m 524.98493,413.81845 c -17.12634,-4.78921 -31.1613,-24.21714 -35.72856,-49.45731 -6.5072,-35.961 7.90099,-83.85103 32.19616,-107.01383 28.44873,-27.12276 60.07801,-19.2591 74.14211,18.43323 6.39932,17.15046 6.80414,51.69094 0.84324,71.94352 -12.82611,43.57725 -45.12735,73.45613 -71.45295,66.09439 z"
       id="path4238" />
    <path
       style="fill:#fcd837;fill-opacity:1;stroke:none;stroke-opacity:1"
       d="m 173.78601,409.9218 c -32.5173,-13.60691 -56.05369,-68.67845 -48.47526,-113.42469 8.33914,-49.23804 43.76542,-64.32747 75.94335,-32.34728 41.76992,41.51327 41.1697,130.26263 -0.99275,146.78924 -9.56778,3.75033 -15.63938,3.51704 -26.47534,-1.01727 z"
       id="path4236" />
    <path
       style="fill:#fcd837;fill-opacity:1;stroke:none;stroke-opacity:1"
       d="m 413.59101,314.71389 c -16.58034,-7.51856 -29.28052,-24.86334 -39.02623,-53.29864 -4.60756,-13.44361 -5.26237,-19.36194 -5.12181,-46.29262 0.14494,-27.76475 0.77127,-32.5716 6.21149,-47.6708 19.08726,-52.97604 58.99203,-69.68913 91.80066,-38.44837 19.37695,18.45092 29.71984,48.8303 29.67037,87.14845 -0.0515,39.87725 -10.33648,69.41195 -30.83686,88.55201 -16.05585,14.99043 -34.13939,18.42543 -52.69762,10.00997 z"
       id="path4234" />
    <path
       style="fill:#fcd837;fill-opacity:1;stroke:none;stroke-opacity:1"
       d="m 279.52861,311.89103 c -13.1012,-4.27555 -19.30025,-9.13866 -29.85277,-23.4193 -31.68553,-42.87972 -29.5631,-121.84857 4.33559,-161.31342 32.7679,-38.148384 79.88268,-18.00716 97.769,41.7955 5.53025,18.49046 5.53025,65.61298 0,84.10341 -9.07392,30.33853 -28.89638,54.82007 -48.40686,59.78445 -10.50919,2.67405 -13.04829,2.57279 -23.84496,-0.95064 z"
       id="path4212" />
  </g>
</svg>
